<svg width="150.686" height="84.082" viewBox="0 0 577.686 84.082" xmlns="http://www.w3.org/2000/svg"><g id="svgGroup" stroke-linecap="round" fill-rule="evenodd" font-size="9pt" stroke="#000" stroke-width="0.25mm" fill="#000" style="stroke:#fff;stroke-width:0.25mm;fill:#fff"><path d="M 426.465 21.094 L 417.676 21.094 Q 417.188 17.334 414.868 14.185 Q 412.549 11.035 408.569 9.107 A 18.634 18.634 0 0 0 403.696 7.561 Q 401.573 7.181 399.159 7.178 A 30.633 30.633 0 0 0 399.121 7.178 A 28.502 28.502 0 0 0 393.614 7.68 Q 390.298 8.333 387.676 9.836 A 16.532 16.532 0 0 0 386.23 10.767 Q 381.25 14.356 378.955 20.362 A 34.68 34.68 0 0 0 376.931 28.854 A 43.657 43.657 0 0 0 376.66 33.789 A 40.475 40.475 0 0 0 377.374 41.541 A 32.844 32.844 0 0 0 378.979 47.144 A 20.809 20.809 0 0 0 383.557 54.336 A 20.083 20.083 0 0 0 386.279 56.641 Q 390.822 59.848 397.843 60.129 A 34.309 34.309 0 0 0 399.219 60.157 A 31.594 31.594 0 0 0 403.942 59.824 Q 407.726 59.251 410.522 57.691 A 15.65 15.65 0 0 0 417.114 50.806 A 21.78 21.78 0 0 0 419.047 44.593 A 28.165 28.165 0 0 0 419.385 40.625 L 400.195 40.625 L 400.195 33.35 L 427.979 33.35 L 427.979 38.477 Q 427.979 47.022 424.78 53.565 A 23.516 23.516 0 0 1 415.21 63.794 Q 409.485 67.106 401.139 67.443 A 47.69 47.69 0 0 1 399.219 67.481 A 41.1 41.1 0 0 1 391.423 66.78 Q 386.616 65.851 382.748 63.692 A 25.422 25.422 0 0 1 381.958 63.233 A 27.019 27.019 0 0 1 371.362 51.392 A 36.771 36.771 0 0 1 368.321 41.241 A 48.744 48.744 0 0 1 367.773 33.789 A 47.928 47.928 0 0 1 368.562 24.896 A 36.312 36.312 0 0 1 371.362 16.114 A 26.993 26.993 0 0 1 381.958 4.248 Q 388.965 0 399.219 0 A 36.019 36.019 0 0 1 408.863 1.274 A 34.073 34.073 0 0 1 408.936 1.294 Q 413.574 2.588 417.334 5.201 Q 421.094 7.813 423.511 11.768 A 20.134 20.134 0 0 1 425.873 17.569 A 25.914 25.914 0 0 1 426.465 21.094 Z M 495.947 84.082 L 491.113 84.082 L 491.113 77.344 L 495.117 77.344 A 8.629 8.629 0 0 0 497.462 77.039 A 6.886 6.886 0 0 0 499.829 75.855 A 7.693 7.693 0 0 0 501.25 74.39 Q 501.832 73.62 502.349 72.621 A 18.608 18.608 0 0 0 503.125 70.899 L 504.98 66.602 L 485.986 19.043 L 494.629 19.043 L 509.326 57.959 L 522.9 19.043 L 531.201 19.043 L 513.33 66.602 L 511.084 72.364 A 42.732 42.732 0 0 1 509.808 75.316 Q 509.129 76.728 508.418 77.888 A 20.275 20.275 0 0 1 507.544 79.2 Q 505.664 81.787 502.93 82.935 A 13.163 13.163 0 0 1 500.458 83.678 Q 499.215 83.931 497.764 84.025 A 27.894 27.894 0 0 1 495.947 84.082 Z M 247.021 66.602 L 238.867 66.602 L 238.867 19.043 L 246.68 19.043 L 246.973 26.367 A 18.44 18.44 0 0 1 249.355 23.822 Q 251.028 22.325 253.271 20.923 Q 257.373 18.36 263.77 18.36 A 20.857 20.857 0 0 1 268.034 18.766 Q 272.64 19.73 275.146 22.974 A 15.491 15.491 0 0 1 277.645 27.923 Q 278.311 30.078 278.561 32.67 A 34.086 34.086 0 0 1 278.711 35.938 L 278.711 66.602 L 270.557 66.602 L 270.557 37.11 A 28.005 28.005 0 0 0 270.396 34.031 Q 270.225 32.487 269.872 31.137 A 17.164 17.164 0 0 0 269.824 30.957 A 9.174 9.174 0 0 0 268.895 28.709 A 7.325 7.325 0 0 0 267.212 26.734 Q 265.739 25.529 263.233 25.268 A 14.163 14.163 0 0 0 261.768 25.196 A 19.397 19.397 0 0 0 257.653 25.61 A 13.862 13.862 0 0 0 252.832 27.613 A 27.61 27.61 0 0 0 249.573 30.146 A 20.921 20.921 0 0 0 247.021 32.91 L 247.021 66.602 Z M 108.594 66.602 L 100.439 66.602 L 100.439 19.043 L 108.252 19.043 L 108.545 26.367 A 17.19 17.19 0 0 1 110.756 23.907 Q 111.95 22.799 113.464 21.742 A 32.564 32.564 0 0 1 114.697 20.923 Q 118.581 18.467 124.303 18.364 A 28.016 28.016 0 0 1 124.805 18.36 A 21.213 21.213 0 0 1 129.006 18.747 Q 131.435 19.239 133.267 20.354 A 10.266 10.266 0 0 1 136.182 22.998 A 15.805 15.805 0 0 1 138.612 27.954 Q 139.648 31.398 139.648 35.938 L 139.648 66.602 L 131.445 66.602 L 131.445 37.11 A 28.961 28.961 0 0 0 131.29 34.031 Q 131.113 32.384 130.737 30.957 A 8.88 8.88 0 0 0 129.811 28.692 A 7.203 7.203 0 0 0 128.125 26.734 A 6.244 6.244 0 0 0 126.079 25.662 Q 125.178 25.374 124.086 25.264 A 14.254 14.254 0 0 0 122.656 25.196 A 17.37 17.37 0 0 0 118.623 25.642 A 12.984 12.984 0 0 0 114.16 27.613 A 26.406 26.406 0 0 0 110.949 30.228 A 20.39 20.39 0 0 0 108.594 32.91 L 108.594 66.602 Z M 215.527 38.233 L 215.527 34.912 A 19.238 19.238 0 0 0 215.326 32.02 Q 214.747 28.224 212.5 26.538 A 11.054 11.054 0 0 0 208.087 24.587 A 15.739 15.739 0 0 0 204.834 24.268 A 16.18 16.18 0 0 0 200.884 24.728 A 12.265 12.265 0 0 0 196.533 26.758 Q 193.164 29.248 193.164 34.619 L 185.254 34.619 A 22.289 22.289 0 0 1 185.579 30.698 Q 186.158 27.462 187.769 25.147 Q 190.283 21.534 194.702 19.873 A 25.321 25.321 0 0 1 200.083 18.531 A 34.008 34.008 0 0 1 204.834 18.213 Q 208.496 18.213 211.841 18.897 A 16.64 16.64 0 0 1 216.998 20.85 A 15.711 15.711 0 0 1 217.847 21.387 Q 220.508 23.194 222.07 26.441 A 14.238 14.238 0 0 1 223.111 29.515 Q 223.437 30.975 223.559 32.68 A 29.842 29.842 0 0 1 223.633 34.815 L 223.633 66.602 L 216.016 66.602 L 215.674 59.375 A 26.117 26.117 0 0 1 208.081 65.259 A 19.762 19.762 0 0 1 202.117 67.168 A 26.129 26.129 0 0 1 197.998 67.481 A 18.74 18.74 0 0 1 193.148 66.87 A 16.459 16.459 0 0 1 190.503 65.918 A 12.792 12.792 0 0 1 185.083 61.304 A 11.813 11.813 0 0 1 183.372 57.08 A 16.622 16.622 0 0 1 183.057 53.76 A 16.307 16.307 0 0 1 183.488 49.894 A 10.648 10.648 0 0 1 187.061 44.043 A 17.307 17.307 0 0 1 191.157 41.563 Q 194.24 40.204 198.389 39.527 A 90.288 90.288 0 0 1 205.274 38.69 Q 208.824 38.388 212.816 38.282 A 162.538 162.538 0 0 1 215.527 38.233 Z M 470.605 38.233 L 470.605 34.912 A 19.238 19.238 0 0 0 470.404 32.02 Q 469.825 28.224 467.578 26.538 A 11.054 11.054 0 0 0 463.165 24.587 A 15.739 15.739 0 0 0 459.912 24.268 A 16.18 16.18 0 0 0 455.962 24.728 A 12.265 12.265 0 0 0 451.611 26.758 Q 448.242 29.248 448.242 34.619 L 440.332 34.619 A 22.289 22.289 0 0 1 440.657 30.698 Q 441.236 27.462 442.847 25.147 Q 445.361 21.534 449.78 19.873 A 25.321 25.321 0 0 1 455.161 18.531 A 34.008 34.008 0 0 1 459.912 18.213 Q 463.574 18.213 466.919 18.897 A 16.64 16.64 0 0 1 472.077 20.85 A 15.711 15.711 0 0 1 472.925 21.387 Q 475.586 23.194 477.148 26.441 A 14.238 14.238 0 0 1 478.189 29.515 Q 478.515 30.975 478.637 32.68 A 29.842 29.842 0 0 1 478.711 34.815 L 478.711 66.602 L 471.094 66.602 L 470.752 59.375 A 26.117 26.117 0 0 1 463.159 65.259 A 19.762 19.762 0 0 1 457.195 67.168 A 26.129 26.129 0 0 1 453.076 67.481 A 18.74 18.74 0 0 1 448.226 66.87 A 16.459 16.459 0 0 1 445.581 65.918 A 12.792 12.792 0 0 1 440.161 61.304 A 11.813 11.813 0 0 1 438.45 57.08 A 16.622 16.622 0 0 1 438.135 53.76 A 16.307 16.307 0 0 1 438.566 49.894 A 10.648 10.648 0 0 1 442.139 44.043 A 17.307 17.307 0 0 1 446.235 41.563 Q 449.318 40.204 453.467 39.527 A 90.288 90.288 0 0 1 460.352 38.69 Q 463.902 38.388 467.894 38.282 A 162.538 162.538 0 0 1 470.605 38.233 Z M 9.033 66.602 L 0 66.602 L 24.609 0.879 L 33.887 0.879 L 58.154 66.602 L 49.072 66.602 L 42.822 48.194 L 15.576 48.194 L 9.033 66.602 Z M 577.441 44.092 L 543.555 44.092 A 26.859 26.859 0 0 0 544.145 49.53 A 22.759 22.759 0 0 0 545.044 52.613 Q 546.484 56.494 549.609 58.838 A 11.085 11.085 0 0 0 553.495 60.667 Q 555.059 61.077 556.903 61.161 A 21.219 21.219 0 0 0 557.861 61.182 A 18.867 18.867 0 0 0 561.193 60.906 Q 564.339 60.341 566.406 58.618 A 8.651 8.651 0 0 0 569.299 53.826 A 12.948 12.948 0 0 0 569.629 51.221 L 577.686 51.221 A 18.246 18.246 0 0 1 577.005 55.767 A 14.63 14.63 0 0 1 575.098 59.888 A 15.391 15.391 0 0 1 569.651 64.81 A 19.006 19.006 0 0 1 568.262 65.503 Q 563.867 67.481 557.861 67.481 A 30.424 30.424 0 0 1 552.434 67.024 Q 548.239 66.263 545.142 64.234 Q 540.186 60.987 537.793 55.396 A 29.596 29.596 0 0 1 535.646 47.153 A 37.177 37.177 0 0 1 535.4 42.823 A 38.818 38.818 0 0 1 535.91 36.383 A 28.871 28.871 0 0 1 537.72 30.005 A 19.285 19.285 0 0 1 542 23.588 A 18.459 18.459 0 0 1 544.8 21.338 Q 549.218 18.438 555.843 18.229 A 33.063 33.063 0 0 1 556.885 18.213 A 25.898 25.898 0 0 1 563.31 18.966 A 17.916 17.916 0 0 1 572.119 24.073 Q 576.897 29.147 577.538 38.065 A 39.848 39.848 0 0 1 577.637 40.918 Q 577.637 41.651 577.588 42.652 Q 577.551 43.406 577.487 43.842 A 3.603 3.603 0 0 1 577.441 44.092 Z M 326.221 26.465 L 326.221 0.879 L 334.375 0.879 L 334.375 66.602 L 326.66 66.602 L 326.221 59.668 A 19.427 19.427 0 0 1 319.957 65.154 A 22.433 22.433 0 0 1 319.678 65.308 A 17.641 17.641 0 0 1 314.12 67.175 A 23.503 23.503 0 0 1 310.254 67.481 A 20.368 20.368 0 0 1 305.011 66.833 A 16.407 16.407 0 0 1 300.195 64.698 A 16.349 16.349 0 0 1 295.361 59.717 A 22.061 22.061 0 0 1 293.628 56.372 Q 291.716 51.805 291.38 45.462 A 52.68 52.68 0 0 1 291.309 42.676 Q 291.309 36.233 292.867 31.487 A 22.84 22.84 0 0 1 293.774 29.151 A 20.229 20.229 0 0 1 296.693 24.46 A 16.652 16.652 0 0 1 300.732 20.972 A 18.48 18.48 0 0 1 307.671 18.483 A 24.021 24.021 0 0 1 311.328 18.213 A 19.626 19.626 0 0 1 315.799 18.701 A 15.416 15.416 0 0 1 320.166 20.435 A 17.188 17.188 0 0 1 326.221 26.465 Z M 170.508 66.602 L 162.354 66.602 L 162.354 37.11 A 28.961 28.961 0 0 0 162.198 34.031 Q 162.022 32.384 161.646 30.957 A 8.88 8.88 0 0 0 160.719 28.692 A 7.203 7.203 0 0 0 159.033 26.734 Q 157.514 25.507 154.969 25.258 A 13.985 13.985 0 0 0 153.613 25.196 A 18.035 18.035 0 0 0 149.624 25.615 A 13.135 13.135 0 0 0 145.068 27.564 A 27.627 27.627 0 0 0 141.554 30.39 A 22.424 22.424 0 0 0 139.355 32.813 L 138.135 26.856 Q 140.967 23.731 145.288 21.045 A 17.517 17.517 0 0 1 151.536 18.707 A 23.581 23.581 0 0 1 155.664 18.36 A 21.213 21.213 0 0 1 159.866 18.747 Q 162.295 19.239 164.126 20.354 A 10.266 10.266 0 0 1 167.041 22.998 A 15.805 15.805 0 0 1 169.471 27.954 Q 170.508 31.398 170.508 35.938 L 170.508 66.602 Z M 75.146 66.602 L 66.992 66.602 L 66.992 19.043 L 74.658 19.043 L 74.951 27.149 A 17.797 17.797 0 0 1 80.518 20.948 A 13.061 13.061 0 0 1 84.838 19.023 Q 87.072 18.457 89.795 18.457 L 90.771 18.457 L 90.771 25.928 L 89.648 25.928 A 23.194 23.194 0 0 0 86.599 26.119 Q 85.002 26.33 83.63 26.778 A 14.039 14.039 0 0 0 83.398 26.856 A 15.893 15.893 0 0 0 80.098 28.422 A 13.933 13.933 0 0 0 78.711 29.419 Q 76.709 31.055 75.146 33.203 L 75.146 66.602 Z M 326.221 52.393 L 326.221 34.082 A 20.219 20.219 0 0 0 322.7 29.046 A 18.572 18.572 0 0 0 320.972 27.466 A 11.638 11.638 0 0 0 315.642 25.096 A 16.058 16.058 0 0 0 312.793 24.854 A 14.383 14.383 0 0 0 308.711 25.4 A 10.455 10.455 0 0 0 303.003 29.492 A 15.776 15.776 0 0 0 300.824 34.053 Q 299.707 37.703 299.707 42.676 A 40.398 40.398 0 0 0 299.995 47.672 Q 300.652 52.927 302.808 56.153 A 9.945 9.945 0 0 0 310.022 60.666 A 13.875 13.875 0 0 0 311.914 60.791 A 18.242 18.242 0 0 0 315.851 60.388 A 12.902 12.902 0 0 0 320.605 58.326 A 20.478 20.478 0 0 0 326.221 52.393 Z M 29.199 9.619 L 17.969 40.821 L 40.332 40.821 L 29.199 9.619 Z M 215.479 53.125 L 215.479 43.457 A 121.403 121.403 0 0 0 209.444 43.665 Q 203.567 44.025 199.732 44.982 A 21.46 21.46 0 0 0 196.851 45.899 A 11.726 11.726 0 0 0 194.188 47.373 Q 191.257 49.587 191.212 53.3 A 9.589 9.589 0 0 0 191.211 53.418 A 9.057 9.057 0 0 0 191.544 55.936 A 6.869 6.869 0 0 0 193.481 59.107 Q 195.356 60.86 198.677 61.166 A 16.027 16.027 0 0 0 200.146 61.231 A 17.823 17.823 0 0 0 205.985 60.295 A 16.249 16.249 0 0 0 208.936 58.936 A 22.025 22.025 0 0 0 215.479 53.125 Z M 470.557 53.125 L 470.557 43.457 A 121.403 121.403 0 0 0 464.522 43.665 Q 458.645 44.025 454.81 44.982 A 21.46 21.46 0 0 0 451.929 45.899 A 11.726 11.726 0 0 0 449.266 47.373 Q 446.336 49.587 446.29 53.3 A 9.589 9.589 0 0 0 446.289 53.418 A 9.057 9.057 0 0 0 446.622 55.936 A 6.869 6.869 0 0 0 448.56 59.107 Q 450.434 60.86 453.755 61.166 A 16.027 16.027 0 0 0 455.225 61.231 A 17.823 17.823 0 0 0 461.063 60.295 A 16.249 16.249 0 0 0 464.014 58.936 A 22.025 22.025 0 0 0 470.557 53.125 Z M 543.604 38.135 L 569.58 38.135 Q 569.434 31.494 566.113 27.979 A 10.899 10.899 0 0 0 560.345 24.811 A 16.305 16.305 0 0 0 556.885 24.463 A 16.358 16.358 0 0 0 552.974 24.904 A 11.108 11.108 0 0 0 547.534 27.954 A 12.54 12.54 0 0 0 544.862 32.225 Q 543.873 34.777 543.604 38.135 Z" vector-effect="non-scaling-stroke"/></g></svg>