<svg width="150" height="30" viewBox="0 0 334.375 66.602" xmlns="http://www.w3.org/2000/svg"><g id="svgGroup" stroke-linecap="round" fill-rule="evenodd" font-size="9pt" stroke="#000" stroke-width="0.25mm" fill="#000" style="stroke:#fff;stroke-width:0.25mm;fill:#fff"><path d="M 247.021 65.723 L 238.867 65.723 L 238.867 18.164 L 246.68 18.164 L 246.973 25.488 A 18.44 18.44 0 0 1 249.355 22.943 Q 251.028 21.446 253.271 20.044 Q 257.373 17.48 263.77 17.48 A 20.857 20.857 0 0 1 268.034 17.887 Q 272.64 18.85 275.146 22.095 A 15.491 15.491 0 0 1 277.645 27.043 Q 278.311 29.199 278.561 31.791 A 34.086 34.086 0 0 1 278.711 35.059 L 278.711 65.723 L 270.557 65.723 L 270.557 36.23 A 28.005 28.005 0 0 0 270.396 33.152 Q 270.225 31.608 269.872 30.257 A 17.164 17.164 0 0 0 269.824 30.078 A 9.174 9.174 0 0 0 268.895 27.829 A 7.325 7.325 0 0 0 267.212 25.854 Q 265.739 24.65 263.233 24.389 A 14.163 14.163 0 0 0 261.768 24.316 A 19.397 19.397 0 0 0 257.653 24.731 A 13.862 13.862 0 0 0 252.832 26.733 A 27.61 27.61 0 0 0 249.573 29.266 A 20.921 20.921 0 0 0 247.021 32.031 L 247.021 65.723 Z M 108.594 65.723 L 100.439 65.723 L 100.439 18.164 L 108.252 18.164 L 108.545 25.488 A 17.19 17.19 0 0 1 110.756 23.028 Q 111.95 21.92 113.464 20.863 A 32.564 32.564 0 0 1 114.697 20.044 Q 118.581 17.587 124.303 17.485 A 28.016 28.016 0 0 1 124.805 17.48 A 21.213 21.213 0 0 1 129.006 17.868 Q 131.435 18.36 133.267 19.474 A 10.266 10.266 0 0 1 136.182 22.119 A 15.805 15.805 0 0 1 138.612 27.075 Q 139.648 30.519 139.648 35.059 L 139.648 65.723 L 131.445 65.723 L 131.445 36.23 A 28.961 28.961 0 0 0 131.29 33.152 Q 131.113 31.505 130.737 30.078 A 8.88 8.88 0 0 0 129.811 27.813 A 7.203 7.203 0 0 0 128.125 25.854 A 6.244 6.244 0 0 0 126.079 24.783 Q 125.178 24.495 124.086 24.385 A 14.254 14.254 0 0 0 122.656 24.316 A 17.37 17.37 0 0 0 118.623 24.763 A 12.984 12.984 0 0 0 114.16 26.733 A 26.406 26.406 0 0 0 110.949 29.349 A 20.39 20.39 0 0 0 108.594 32.031 L 108.594 65.723 Z M 215.527 37.354 L 215.527 34.033 A 19.238 19.238 0 0 0 215.326 31.141 Q 214.747 27.344 212.5 25.659 A 11.054 11.054 0 0 0 208.087 23.708 A 15.739 15.739 0 0 0 204.834 23.389 A 16.18 16.18 0 0 0 200.884 23.848 A 12.265 12.265 0 0 0 196.533 25.879 Q 193.164 28.369 193.164 33.74 L 185.254 33.74 A 22.289 22.289 0 0 1 185.579 29.819 Q 186.158 26.582 187.769 24.268 Q 190.283 20.654 194.702 18.994 A 25.321 25.321 0 0 1 200.083 17.652 A 34.008 34.008 0 0 1 204.834 17.334 Q 208.496 17.334 211.841 18.018 A 16.64 16.64 0 0 1 216.998 19.971 A 15.711 15.711 0 0 1 217.847 20.508 Q 220.508 22.314 222.07 25.562 A 14.238 14.238 0 0 1 223.111 28.636 Q 223.437 30.096 223.559 31.801 A 29.842 29.842 0 0 1 223.633 33.936 L 223.633 65.723 L 216.016 65.723 L 215.674 58.496 A 26.117 26.117 0 0 1 208.081 64.38 A 19.762 19.762 0 0 1 202.117 66.289 A 26.129 26.129 0 0 1 197.998 66.602 A 18.74 18.74 0 0 1 193.148 65.991 A 16.459 16.459 0 0 1 190.503 65.039 A 12.792 12.792 0 0 1 185.083 60.425 A 11.813 11.813 0 0 1 183.372 56.201 A 16.622 16.622 0 0 1 183.057 52.881 A 16.307 16.307 0 0 1 183.488 49.014 A 10.648 10.648 0 0 1 187.061 43.164 A 17.307 17.307 0 0 1 191.157 40.684 Q 194.24 39.325 198.389 38.647 A 90.288 90.288 0 0 1 205.274 37.811 Q 208.824 37.509 212.816 37.403 A 162.538 162.538 0 0 1 215.527 37.354 Z M 9.033 65.723 L 0 65.723 L 24.609 0 L 33.887 0 L 58.154 65.723 L 49.072 65.723 L 42.822 47.314 L 15.576 47.314 L 9.033 65.723 Z M 326.221 25.586 L 326.221 0 L 334.375 0 L 334.375 65.723 L 326.66 65.723 L 326.221 58.789 A 19.427 19.427 0 0 1 319.957 64.274 A 22.433 22.433 0 0 1 319.678 64.429 A 17.641 17.641 0 0 1 314.12 66.296 A 23.503 23.503 0 0 1 310.254 66.602 A 20.368 20.368 0 0 1 305.011 65.954 A 16.407 16.407 0 0 1 300.195 63.818 A 16.349 16.349 0 0 1 295.361 58.838 A 22.061 22.061 0 0 1 293.628 55.493 Q 291.716 50.925 291.38 44.583 A 52.68 52.68 0 0 1 291.309 41.797 Q 291.309 35.354 292.867 30.607 A 22.84 22.84 0 0 1 293.774 28.271 A 20.229 20.229 0 0 1 296.693 23.581 A 16.652 16.652 0 0 1 300.732 20.093 A 18.48 18.48 0 0 1 307.671 17.603 A 24.021 24.021 0 0 1 311.328 17.334 A 19.626 19.626 0 0 1 315.799 17.822 A 15.416 15.416 0 0 1 320.166 19.556 A 17.188 17.188 0 0 1 326.221 25.586 Z M 170.508 65.723 L 162.354 65.723 L 162.354 36.23 A 28.961 28.961 0 0 0 162.198 33.152 Q 162.022 31.505 161.646 30.078 A 8.88 8.88 0 0 0 160.719 27.813 A 7.203 7.203 0 0 0 159.033 25.854 Q 157.514 24.627 154.969 24.379 A 13.985 13.985 0 0 0 153.613 24.316 A 18.035 18.035 0 0 0 149.624 24.736 A 13.135 13.135 0 0 0 145.068 26.685 A 27.627 27.627 0 0 0 141.554 29.511 A 22.424 22.424 0 0 0 139.355 31.934 L 138.135 25.977 Q 140.967 22.852 145.288 20.166 A 17.517 17.517 0 0 1 151.536 17.827 A 23.581 23.581 0 0 1 155.664 17.48 A 21.213 21.213 0 0 1 159.866 17.868 Q 162.295 18.36 164.126 19.474 A 10.266 10.266 0 0 1 167.041 22.119 A 15.805 15.805 0 0 1 169.471 27.075 Q 170.508 30.519 170.508 35.059 L 170.508 65.723 Z M 75.146 65.723 L 66.992 65.723 L 66.992 18.164 L 74.658 18.164 L 74.951 26.27 A 17.797 17.797 0 0 1 80.518 20.068 A 13.061 13.061 0 0 1 84.838 18.144 Q 87.072 17.578 89.795 17.578 L 90.771 17.578 L 90.771 25.049 L 89.648 25.049 A 23.194 23.194 0 0 0 86.599 25.239 Q 85.002 25.451 83.63 25.899 A 14.039 14.039 0 0 0 83.398 25.977 A 15.893 15.893 0 0 0 80.098 27.543 A 13.933 13.933 0 0 0 78.711 28.54 Q 76.709 30.176 75.146 32.324 L 75.146 65.723 Z M 326.221 51.514 L 326.221 33.203 A 20.219 20.219 0 0 0 322.7 28.166 A 18.572 18.572 0 0 0 320.972 26.587 A 11.638 11.638 0 0 0 315.642 24.217 A 16.058 16.058 0 0 0 312.793 23.975 A 14.383 14.383 0 0 0 308.711 24.521 A 10.455 10.455 0 0 0 303.003 28.613 A 15.776 15.776 0 0 0 300.824 33.173 Q 299.707 36.823 299.707 41.797 A 40.398 40.398 0 0 0 299.995 46.793 Q 300.652 52.048 302.808 55.273 A 9.945 9.945 0 0 0 310.022 59.787 A 13.875 13.875 0 0 0 311.914 59.912 A 18.242 18.242 0 0 0 315.851 59.509 A 12.902 12.902 0 0 0 320.605 57.446 A 20.478 20.478 0 0 0 326.221 51.514 Z M 29.199 8.74 L 17.969 39.941 L 40.332 39.941 L 29.199 8.74 Z M 215.479 52.246 L 215.479 42.578 A 121.403 121.403 0 0 0 209.444 42.786 Q 203.567 43.146 199.732 44.103 A 21.46 21.46 0 0 0 196.851 45.02 A 11.726 11.726 0 0 0 194.188 46.494 Q 191.257 48.708 191.212 52.421 A 9.589 9.589 0 0 0 191.211 52.539 A 9.057 9.057 0 0 0 191.544 55.057 A 6.869 6.869 0 0 0 193.481 58.228 Q 195.356 59.981 198.677 60.287 A 16.027 16.027 0 0 0 200.146 60.352 A 17.823 17.823 0 0 0 205.985 59.415 A 16.249 16.249 0 0 0 208.936 58.057 A 22.025 22.025 0 0 0 215.479 52.246 Z" vector-effect="non-scaling-stroke"/></g></svg>